<svg xmlns="http://www.w3.org/2000/svg" viewBox="0 0 1200 1600" width="1200" height="1600" preserveAspectRatio="xMidYMid slice">
  <defs>
    <radialGradient id="bg" cx="50%" cy="35%" r="80%">
      <stop offset="0%" stop-color="#1B1740"></stop>
      <stop offset="100%" stop-color="#0B0820"></stop>
    </radialGradient>
    <radialGradient id="star" cx="50%" cy="50%" r="50%">
      <stop offset="0%" stop-color="#ffffff" stop-opacity="1"></stop>
      <stop offset="100%" stop-color="#ffffff" stop-opacity="0"></stop>
    </radialGradient>
    <radialGradient id="warm" cx="50%" cy="50%" r="50%">
      <stop offset="0%" stop-color="#FFD43B" stop-opacity="1"></stop>
      <stop offset="100%" stop-color="#FFD43B" stop-opacity="0"></stop>
    </radialGradient>
  </defs>
  <rect width="1200" height="1600" fill="url(#bg)"></rect>
  <g fill="url(#star)">
    <circle cx="60" cy="120" r="1.6"></circle><circle cx="180" cy="60" r="1.2"></circle><circle cx="240" cy="200" r="2.0"></circle><circle cx="320" cy="90" r="1.0"></circle><circle cx="420" cy="160" r="1.8"></circle><circle cx="500" cy="40" r="1.2"></circle><circle cx="600" cy="120" r="1.4"></circle><circle cx="720" cy="80" r="1.0"></circle><circle cx="820" cy="180" r="2.2"></circle><circle cx="920" cy="60" r="1.4"></circle><circle cx="1020" cy="140" r="1.2"></circle><circle cx="1120" cy="100" r="1.6"></circle>
    <circle cx="40" cy="300" r="1.2"></circle><circle cx="160" cy="380" r="1.6"></circle><circle cx="280" cy="320" r="1.0"></circle><circle cx="380" cy="420" r="1.8"></circle><circle cx="460" cy="280" r="1.2"></circle><circle cx="560" cy="360" r="2.0"></circle><circle cx="660" cy="300" r="1.4"></circle><circle cx="780" cy="400" r="1.2"></circle><circle cx="880" cy="320" r="1.6"></circle><circle cx="980" cy="380" r="1.0"></circle><circle cx="1080" cy="260" r="1.4"></circle><circle cx="1160" cy="340" r="1.8"></circle>
    <circle cx="80" cy="540" r="1.4"></circle><circle cx="200" cy="600" r="1.0"></circle><circle cx="300" cy="520" r="1.6"></circle><circle cx="420" cy="640" r="2.0"></circle><circle cx="520" cy="500" r="1.2"></circle><circle cx="640" cy="580" r="1.4"></circle><circle cx="740" cy="520" r="1.8"></circle><circle cx="860" cy="640" r="1.0"></circle><circle cx="940" cy="540" r="1.6"></circle><circle cx="1040" cy="600" r="1.2"></circle><circle cx="1140" cy="520" r="1.4"></circle>
    <circle cx="60" cy="780" r="2.0"></circle><circle cx="160" cy="840" r="1.0"></circle><circle cx="280" cy="760" r="1.4"></circle><circle cx="400" cy="820" r="1.2"></circle><circle cx="500" cy="740" r="1.6"></circle><circle cx="620" cy="800" r="1.8"></circle><circle cx="720" cy="740" r="1.0"></circle><circle cx="840" cy="820" r="1.4"></circle><circle cx="960" cy="780" r="1.2"></circle><circle cx="1060" cy="840" r="1.6"></circle><circle cx="1160" cy="760" r="2.0"></circle>
    <circle cx="80" cy="1000" r="1.2"></circle><circle cx="200" cy="1080" r="1.8"></circle><circle cx="320" cy="1020" r="1.0"></circle><circle cx="440" cy="1100" r="1.4"></circle><circle cx="540" cy="980" r="1.6"></circle><circle cx="660" cy="1060" r="1.2"></circle><circle cx="780" cy="1000" r="2.0"></circle><circle cx="900" cy="1080" r="1.0"></circle><circle cx="1000" cy="1020" r="1.4"></circle><circle cx="1100" cy="1080" r="1.6"></circle>
    <circle cx="40" cy="1240" r="1.6"></circle><circle cx="180" cy="1300" r="1.0"></circle><circle cx="300" cy="1240" r="1.8"></circle><circle cx="420" cy="1320" r="1.2"></circle><circle cx="520" cy="1240" r="1.4"></circle><circle cx="640" cy="1300" r="2.0"></circle><circle cx="760" cy="1240" r="1.0"></circle><circle cx="880" cy="1320" r="1.6"></circle><circle cx="980" cy="1240" r="1.2"></circle><circle cx="1100" cy="1300" r="1.4"></circle>
    <circle cx="100" cy="1480" r="1.4"></circle><circle cx="240" cy="1540" r="1.8"></circle><circle cx="360" cy="1460" r="1.0"></circle><circle cx="480" cy="1540" r="1.6"></circle><circle cx="600" cy="1480" r="1.2"></circle><circle cx="740" cy="1540" r="1.4"></circle><circle cx="860" cy="1480" r="2.0"></circle><circle cx="980" cy="1540" r="1.0"></circle><circle cx="1100" cy="1480" r="1.6"></circle>
  </g>
  <g fill="url(#warm)" opacity="0.7">
    <circle cx="220" cy="240" r="2.0"></circle><circle cx="780" cy="540" r="1.8"></circle><circle cx="380" cy="900" r="2.2"></circle><circle cx="940" cy="1180" r="1.8"></circle><circle cx="160" cy="1380" r="2.0"></circle>
  </g>
</svg>